<svg xmlns="http://www.w3.org/2000/svg" xmlns:xlink="http://www.w3.org/1999/xlink" width="500" zoomAndPan="magnify" viewBox="0 0 375 374.999991" height="500" preserveAspectRatio="xMidYMid meet" version="1.0"><defs><g/></defs><g fill="#ffffff" fill-opacity="1"><g transform="translate(16.853476, 212.549684)"><g><path d="M 33.65625 -77.65625 C 37.78125 -77.65625 41.816406 -77.054688 45.765625 -75.859375 C 49.710938 -74.660156 52.640625 -73.472656 54.546875 -72.296875 L 57.328125 -70.453125 L 50.296875 -56.578125 C 49.742188 -56.953125 48.972656 -57.429688 47.984375 -58.015625 C 46.992188 -58.597656 45.144531 -59.378906 42.4375 -60.359375 C 39.726562 -61.347656 37.203125 -61.84375 34.859375 -61.84375 C 31.960938 -61.84375 29.726562 -61.226562 28.15625 -60 C 26.582031 -58.769531 25.796875 -57.109375 25.796875 -55.015625 C 25.796875 -53.960938 26.164062 -52.988281 26.90625 -52.09375 C 27.644531 -51.195312 28.90625 -50.238281 30.6875 -49.21875 C 32.476562 -48.207031 34.050781 -47.394531 35.40625 -46.78125 C 36.757812 -46.164062 38.859375 -45.238281 41.703125 -44 C 46.628906 -41.90625 50.832031 -39.054688 54.3125 -35.453125 C 57.800781 -31.847656 59.546875 -27.765625 59.546875 -23.203125 C 59.546875 -18.828125 58.757812 -15.003906 57.1875 -11.734375 C 55.613281 -8.472656 53.453125 -5.914062 50.703125 -4.0625 C 47.960938 -2.21875 44.925781 -0.847656 41.59375 0.046875 C 38.269531 0.941406 34.664062 1.390625 30.78125 1.390625 C 27.457031 1.390625 24.191406 1.050781 20.984375 0.375 C 17.773438 -0.300781 15.09375 -1.148438 12.9375 -2.171875 C 10.78125 -3.191406 8.835938 -4.191406 7.109375 -5.171875 C 5.390625 -6.160156 4.128906 -6.992188 3.328125 -7.671875 L 2.125 -8.6875 L 10.8125 -23.296875 C 11.550781 -22.679688 12.566406 -21.894531 13.859375 -20.9375 C 15.160156 -19.976562 17.457031 -18.695312 20.75 -17.09375 C 24.050781 -15.5 26.96875 -14.703125 29.5 -14.703125 C 36.832031 -14.703125 40.5 -17.195312 40.5 -22.1875 C 40.5 -23.238281 40.234375 -24.207031 39.703125 -25.09375 C 39.179688 -25.988281 38.257812 -26.882812 36.9375 -27.78125 C 35.613281 -28.675781 34.441406 -29.382812 33.421875 -29.90625 C 32.398438 -30.425781 30.734375 -31.226562 28.421875 -32.3125 C 26.117188 -33.394531 24.410156 -34.210938 23.296875 -34.765625 C 18.671875 -37.046875 15.09375 -39.894531 12.5625 -43.3125 C 10.039062 -46.738281 8.78125 -50.421875 8.78125 -54.359375 C 8.78125 -61.203125 11.304688 -66.796875 16.359375 -71.140625 C 21.421875 -75.484375 27.1875 -77.65625 33.65625 -77.65625 Z M 33.65625 -77.65625 "/></g></g></g><g fill="#ffffff" fill-opacity="1"><g transform="translate(70.277973, 212.549684)"><g><path d="M 7.109375 -73.859375 C 9.023438 -75.773438 11.304688 -76.734375 13.953125 -76.734375 C 16.609375 -76.734375 18.890625 -75.773438 20.796875 -73.859375 C 22.710938 -71.953125 23.671875 -69.671875 23.671875 -67.015625 C 23.671875 -64.367188 22.710938 -62.09375 20.796875 -60.1875 C 18.890625 -58.28125 16.609375 -57.328125 13.953125 -57.328125 C 11.304688 -57.328125 9.023438 -58.28125 7.109375 -60.1875 C 5.203125 -62.09375 4.25 -64.367188 4.25 -67.015625 C 4.25 -69.671875 5.203125 -71.953125 7.109375 -73.859375 Z M 5.546875 -47.421875 L 5.546875 0 L 21.90625 0 L 21.90625 -47.421875 Z M 5.546875 -47.421875 "/></g></g></g><g fill="#ffffff" fill-opacity="1"><g transform="translate(89.50178, 212.549684)"><g><path d="M 54.359375 -41.546875 C 58.796875 -36.710938 61.015625 -30.78125 61.015625 -23.75 C 61.015625 -16.726562 58.796875 -10.78125 54.359375 -5.90625 C 49.921875 -1.039062 44.28125 1.390625 37.4375 1.390625 C 31.15625 1.390625 25.976562 -0.582031 21.90625 -4.53125 L 21.90625 24.03125 L 5.546875 24.03125 L 5.546875 -47.421875 L 21.71875 -47.421875 L 21.71875 -42.0625 L 21.90625 -42.0625 C 25.976562 -46.5625 31.15625 -48.8125 37.4375 -48.8125 C 44.28125 -48.8125 49.921875 -46.390625 54.359375 -41.546875 Z M 40.453125 -15.71875 C 42.578125 -17.8125 43.640625 -20.488281 43.640625 -23.75 C 43.640625 -27.019531 42.617188 -29.6875 40.578125 -31.75 C 38.546875 -33.820312 35.867188 -34.859375 32.546875 -34.859375 C 29.335938 -34.859375 26.703125 -33.804688 24.640625 -31.703125 C 22.578125 -29.609375 21.546875 -26.960938 21.546875 -23.765625 C 21.546875 -20.492188 22.609375 -17.8125 24.734375 -15.71875 C 26.859375 -13.625 29.460938 -12.578125 32.546875 -12.578125 C 35.691406 -12.578125 38.328125 -13.625 40.453125 -15.71875 Z M 40.453125 -15.71875 "/></g></g></g><g fill="#ffffff" fill-opacity="1"><g transform="translate(143.943045, 212.549684)"><g><path d="M 53.53125 -21.453125 L 19.140625 -21.453125 C 19.140625 -18.117188 20.21875 -15.648438 22.375 -14.046875 C 24.53125 -12.453125 26.875 -11.65625 29.40625 -11.65625 C 32.050781 -11.65625 34.144531 -12.007812 35.6875 -12.71875 C 37.226562 -13.425781 38.984375 -14.828125 40.953125 -16.921875 L 52.796875 -11 C 47.859375 -2.738281 39.660156 1.390625 28.203125 1.390625 C 21.046875 1.390625 14.910156 -1.054688 9.796875 -5.953125 C 4.679688 -10.859375 2.125 -16.757812 2.125 -23.65625 C 2.125 -30.5625 4.679688 -36.476562 9.796875 -41.40625 C 14.910156 -46.34375 21.046875 -48.8125 28.203125 -48.8125 C 35.722656 -48.8125 41.835938 -46.640625 46.546875 -42.296875 C 51.265625 -37.953125 53.625 -31.742188 53.625 -23.671875 C 53.625 -22.554688 53.59375 -21.816406 53.53125 -21.453125 Z M 19.59375 -30.515625 L 37.625 -30.515625 C 37.257812 -32.972656 36.289062 -34.863281 34.71875 -36.1875 C 33.144531 -37.519531 31.125 -38.1875 28.65625 -38.1875 C 25.945312 -38.1875 23.789062 -37.476562 22.1875 -36.0625 C 20.582031 -34.644531 19.71875 -32.796875 19.59375 -30.515625 Z M 19.59375 -30.515625 "/></g></g></g><g fill="#ffffff" fill-opacity="1"><g transform="translate(190.989562, 212.549684)"><g><path d="M 26.171875 -48.8125 C 28.878906 -48.8125 31.554688 -48.503906 34.203125 -47.890625 C 36.859375 -47.273438 38.832031 -46.660156 40.125 -46.046875 L 42.0625 -45.109375 L 36.703125 -34.390625 C 33.003906 -36.359375 29.492188 -37.34375 26.171875 -37.34375 C 24.316406 -37.34375 23.003906 -37.144531 22.234375 -36.75 C 21.460938 -36.351562 21.078125 -35.597656 21.078125 -34.484375 C 21.078125 -34.234375 21.109375 -33.984375 21.171875 -33.734375 C 21.234375 -33.492188 21.351562 -33.265625 21.53125 -33.046875 C 21.71875 -32.835938 21.890625 -32.65625 22.046875 -32.5 C 22.203125 -32.34375 22.460938 -32.171875 22.828125 -31.984375 C 23.203125 -31.804688 23.492188 -31.671875 23.703125 -31.578125 C 23.921875 -31.484375 24.273438 -31.34375 24.765625 -31.15625 C 25.265625 -30.96875 25.632812 -30.828125 25.875 -30.734375 C 26.125 -30.648438 26.539062 -30.515625 27.125 -30.328125 C 27.71875 -30.140625 28.164062 -30.015625 28.46875 -29.953125 C 30.382812 -29.398438 32.050781 -28.785156 33.46875 -28.109375 C 34.882812 -27.429688 36.378906 -26.503906 37.953125 -25.328125 C 39.523438 -24.160156 40.738281 -22.679688 41.59375 -20.890625 C 42.457031 -19.109375 42.890625 -17.078125 42.890625 -14.796875 C 42.890625 -4.003906 35.40625 1.390625 20.4375 1.390625 C 17.039062 1.390625 13.816406 0.867188 10.765625 -0.171875 C 7.710938 -1.222656 5.507812 -2.273438 4.15625 -3.328125 L 2.125 -5 L 8.78125 -16.171875 C 9.269531 -15.742188 9.914062 -15.238281 10.71875 -14.65625 C 11.519531 -14.070312 12.96875 -13.269531 15.0625 -12.25 C 17.164062 -11.226562 18.988281 -10.71875 20.53125 -10.71875 C 23.914062 -10.71875 25.609375 -11.859375 25.609375 -14.140625 C 25.609375 -15.191406 25.175781 -16.007812 24.3125 -16.59375 C 23.445312 -17.175781 21.984375 -17.835938 19.921875 -18.578125 C 17.859375 -19.316406 16.238281 -19.992188 15.0625 -20.609375 C 12.101562 -22.148438 9.757812 -23.890625 8.03125 -25.828125 C 6.3125 -27.773438 5.453125 -30.351562 5.453125 -33.5625 C 5.453125 -38.363281 7.316406 -42.101562 11.046875 -44.78125 C 14.773438 -47.46875 19.816406 -48.8125 26.171875 -48.8125 Z M 26.171875 -48.8125 "/></g></g></g><g fill="#ffffff" fill-opacity="1"><g transform="translate(227.775869, 212.549684)"><g><path d="M 8.328125 -47.421875 L 8.328125 -65.09375 L 24.6875 -65.09375 L 24.6875 -47.421875 L 34.671875 -47.421875 L 34.671875 -34.953125 L 24.6875 -34.953125 L 24.6875 -19.875 C 24.6875 -15.5 25.921875 -13.3125 28.390625 -13.3125 C 29.003906 -13.3125 29.648438 -13.429688 30.328125 -13.671875 C 31.003906 -13.921875 31.523438 -14.171875 31.890625 -14.421875 L 32.453125 -14.796875 L 36.515625 -1.578125 C 33.003906 0.398438 29 1.390625 24.5 1.390625 C 21.414062 1.390625 18.765625 0.851562 16.546875 -0.21875 C 14.328125 -1.300781 12.644531 -2.75 11.5 -4.5625 C 10.363281 -6.382812 9.550781 -8.296875 9.0625 -10.296875 C 8.570312 -12.304688 8.328125 -14.453125 8.328125 -16.734375 L 8.328125 -34.953125 L 1.484375 -34.953125 L 1.484375 -47.421875 Z M 8.328125 -47.421875 "/></g></g></g><g fill="#ffffff" fill-opacity="1"><g transform="translate(255.596037, 212.549684)"><g><path d="M 7.109375 -73.859375 C 9.023438 -75.773438 11.304688 -76.734375 13.953125 -76.734375 C 16.609375 -76.734375 18.890625 -75.773438 20.796875 -73.859375 C 22.710938 -71.953125 23.671875 -69.671875 23.671875 -67.015625 C 23.671875 -64.367188 22.710938 -62.09375 20.796875 -60.1875 C 18.890625 -58.28125 16.609375 -57.328125 13.953125 -57.328125 C 11.304688 -57.328125 9.023438 -58.28125 7.109375 -60.1875 C 5.203125 -62.09375 4.25 -64.367188 4.25 -67.015625 C 4.25 -69.671875 5.203125 -71.953125 7.109375 -73.859375 Z M 5.546875 -47.421875 L 5.546875 0 L 21.90625 0 L 21.90625 -47.421875 Z M 5.546875 -47.421875 "/></g></g></g><g fill="#ffffff" fill-opacity="1"><g transform="translate(274.819834, 212.549684)"><g><path d="M 59.71875 -47.421875 L 37.171875 -24.78125 L 61.9375 0 L 40.859375 0 L 21.90625 -18.953125 L 21.90625 0 L 5.546875 0 L 5.546875 -79.515625 L 21.90625 -79.515625 L 21.90625 -30.875 L 38.453125 -47.421875 Z M 59.71875 -47.421875 "/></g></g></g><g fill="#ffffff" fill-opacity="1"><g transform="translate(325.841036, 212.549684)"><g><path d="M 16.09375 -19.78125 C 19.050781 -19.78125 21.5625 -18.75 23.625 -16.6875 C 25.6875 -14.625 26.71875 -12.113281 26.71875 -9.15625 C 26.71875 -6.257812 25.6875 -3.773438 23.625 -1.703125 C 21.5625 0.359375 19.050781 1.390625 16.09375 1.390625 C 13.1875 1.390625 10.703125 0.359375 8.640625 -1.703125 C 6.578125 -3.773438 5.546875 -6.257812 5.546875 -9.15625 C 5.546875 -12.113281 6.578125 -14.625 8.640625 -16.6875 C 10.703125 -18.75 13.1875 -19.78125 16.09375 -19.78125 Z M 16.09375 -19.78125 "/></g></g></g></svg>