<svg xmlns="http://www.w3.org/2000/svg" viewBox="0 0 500 155.2"><defs><style>.cls-1{fill:#fff;}</style></defs><g id="Layer_2" data-name="Layer 2"><g id="Layer_1-2" data-name="Layer 1"><path class="cls-1" d="M47.26,2.79A62.38,62.38,0,0,1,65.41,5.48q8.88,2.7,13.16,5.34l4.17,2.76L72.2,34.38c-.83-.56-2-1.28-3.46-2.15a56.73,56.73,0,0,0-8.32-3.52,33.26,33.26,0,0,0-11.35-2.22q-6.52,0-10,2.76a9,9,0,0,0-3.54,7.47,6.72,6.72,0,0,0,1.66,4.38,20.84,20.84,0,0,0,5.67,4.31q4,2.28,7.07,3.66t9.44,4.16A56.88,56.88,0,0,1,78.22,66q7.84,8.11,7.85,18.37a39.24,39.24,0,0,1-3.54,17.19,28.42,28.42,0,0,1-9.72,11.5,45.69,45.69,0,0,1-13.65,6.16,62.26,62.26,0,0,1-16.21,2,71.22,71.22,0,0,1-14.68-1.52,55.2,55.2,0,0,1-12.06-3.82q-4.86-2.3-8.74-4.5a40.9,40.9,0,0,1-5.67-3.74L0,106.16,13,84.27q1.67,1.38,4.57,3.53a72.74,72.74,0,0,0,10.33,5.76C32.86,96,37.24,97.15,41,97.15q16.49,0,16.49-11.22a8.38,8.38,0,0,0-1.19-4.36,13.56,13.56,0,0,0-4.15-4,50.83,50.83,0,0,0-5.27-3.18q-2.29-1.17-7.49-3.61t-7.69-3.67Q21.34,62,15.64,54.26A27.36,27.36,0,0,1,10,37.71q0-15.39,11.36-25.16A38.68,38.68,0,0,1,47.26,2.79Z"/><path class="cls-1" d="M87.55,8.48a14.36,14.36,0,0,1,20.51,0,14,14,0,0,1,4.31,10.26A13.93,13.93,0,0,1,108.06,29a14.4,14.4,0,0,1-20.51,0,14,14,0,0,1-4.29-10.23A14,14,0,0,1,87.55,8.48ZM85.21,48.1v71.08h24.52V48.1Z"/><path class="cls-1" d="M187.18,56.91q10,10.88,10,26.68t-10,26.74q-10,11-25.36,10.94-14.12,0-23.28-8.88V155.2H114V48.1h24.24v8h.28Q147.69,46,161.82,46,177.21,46,187.18,56.91ZM166.34,95.62a16.12,16.12,0,0,0,4.78-12,16.36,16.36,0,0,0-4.59-12q-4.58-4.66-12-4.67a15.9,15.9,0,0,0-11.85,4.74A16.24,16.24,0,0,0,138,83.56a16.71,16.71,0,0,0,28.34,12.06Z"/><path class="cls-1" d="M267.54,87H216q0,7.5,4.85,11.1a17.33,17.33,0,0,0,10.53,3.58,22.81,22.81,0,0,0,9.42-1.59q3.47-1.59,7.89-6.3l17.75,8.88q-11.1,18.57-36.86,18.57a38.48,38.48,0,0,1-27.59-11,36.44,36.44,0,0,1,0-53.14A38.32,38.32,0,0,1,229.58,46q16.9,0,27.5,9.77T267.69,83.7A23,23,0,0,1,267.54,87ZM216.68,73.45h27a13.22,13.22,0,0,0-4.35-8.51,13.62,13.62,0,0,0-9.09-3q-6.09,0-9.7,3.18A11.46,11.46,0,0,0,216.68,73.45Z"/><path class="cls-1" d="M297.05,46a53.14,53.14,0,0,1,12,1.38A47.16,47.16,0,0,1,318,50.17l2.9,1.4-8,16.07q-8.32-4.43-15.79-4.43a14,14,0,0,0-5.9.89,3.46,3.46,0,0,0-1.73,3.4,4.77,4.77,0,0,0,.14,1.12,2.63,2.63,0,0,0,.54,1c.28.32.54.59.77.82a4.51,4.51,0,0,0,1.17.77l1.31.61,1.6.64,1.66.63,1.87.61c.89.28,1.56.46,2,.56A49.5,49.5,0,0,1,308,77.05a41.48,41.48,0,0,1,6.72,4.17,17.59,17.59,0,0,1,5.46,6.65A20.77,20.77,0,0,1,322.11,97q0,24.26-33.65,24.26a44.83,44.83,0,0,1-14.5-2.34q-6.87-2.37-9.91-4.73l-3-2.51,10-16.75c.73.65,1.69,1.4,2.9,2.28a47.88,47.88,0,0,0,6.51,3.6,19.27,19.27,0,0,0,8.2,2.3q7.61,0,7.61-5.13a4.21,4.21,0,0,0-1.94-3.68,32.58,32.58,0,0,0-6.58-3,58.44,58.44,0,0,1-7.29-3,36.21,36.21,0,0,1-10.54-7.82Q266,76.11,266,68.88q0-10.8,8.38-16.82T297.05,46Z"/><path class="cls-1" d="M325.45,48.1V21.62H350V48.1h15V66.79H350v22.6q0,9.84,5.55,9.84a8.45,8.45,0,0,0,2.9-.54,11.17,11.17,0,0,0,2.34-1.12l.85-.56,6.09,19.81a36.14,36.14,0,0,1-18,4.45,27.22,27.22,0,0,1-11.92-2.41,18,18,0,0,1-7.57-6.51,29.33,29.33,0,0,1-3.65-8.6,40.35,40.35,0,0,1-1.1-9.65V66.79H315.19V48.1Z"/><path class="cls-1" d="M365.32,8.48a14.36,14.36,0,0,1,20.51,0,14,14,0,0,1,4.31,10.26A13.93,13.93,0,0,1,385.83,29a14.4,14.4,0,0,1-20.51,0A14,14,0,0,1,361,18.74,14,14,0,0,1,365.32,8.48ZM363,48.1v71.08H387.5V48.1Z"/><path class="cls-1" d="M473,48.1,439.19,82l37.12,37.14H444.72l-28.41-28.4v28.4H391.79V0h24.52V72.91l24.8-24.81Z"/><path class="cls-1" d="M484.07,89.53a15.87,15.87,0,1,1,0,31.74,15.89,15.89,0,0,1-11.17-27.1A15.24,15.24,0,0,1,484.07,89.53Z"/></g></g></svg>